<mxfile host="app.diagrams.net" modified="2024-04-25T14:19:48.525Z" agent="Mozilla/5.0 (Macintosh; Intel Mac OS X 10_15_7) AppleWebKit/537.36 (KHTML, like Gecko) Chrome/124.0.0.0 Safari/537.36" etag="PtkwFOFLd8n5ODnBGdEL" version="24.3.0" type="device">
  <diagram name="Page-1" id="8z_4B5OHiJehauX5gEp2">
    <mxGraphModel dx="954" dy="530" grid="1" gridSize="10" guides="1" tooltips="1" connect="1" arrows="1" fold="1" page="1" pageScale="1" pageWidth="850" pageHeight="1100" math="0" shadow="0">
      <root>
        <mxCell id="0" />
        <mxCell id="1" parent="0" />
        <mxCell id="q5NMnrcOPKUYkLZQrbMx-139" style="edgeStyle=orthogonalEdgeStyle;rounded=0;orthogonalLoop=1;jettySize=auto;html=1;exitX=1;exitY=0.5;exitDx=0;exitDy=0;entryX=0.5;entryY=1;entryDx=0;entryDy=0;endArrow=block;endFill=0;" parent="1" source="q5NMnrcOPKUYkLZQrbMx-26" target="q5NMnrcOPKUYkLZQrbMx-113" edge="1">
          <mxGeometry relative="1" as="geometry" />
        </mxCell>
        <mxCell id="q5NMnrcOPKUYkLZQrbMx-140" style="edgeStyle=orthogonalEdgeStyle;rounded=0;orthogonalLoop=1;jettySize=auto;html=1;entryX=0.5;entryY=0;entryDx=0;entryDy=0;endArrow=block;endFill=0;" parent="1" source="q5NMnrcOPKUYkLZQrbMx-26" target="q5NMnrcOPKUYkLZQrbMx-135" edge="1">
          <mxGeometry relative="1" as="geometry" />
        </mxCell>
        <mxCell id="q5NMnrcOPKUYkLZQrbMx-26" value="gestion profile" style="ellipse;whiteSpace=wrap;html=1;" parent="1" vertex="1">
          <mxGeometry x="100" y="170" width="80" height="40" as="geometry" />
        </mxCell>
        <mxCell id="q5NMnrcOPKUYkLZQrbMx-143" style="edgeStyle=orthogonalEdgeStyle;rounded=0;orthogonalLoop=1;jettySize=auto;html=1;endArrow=block;endFill=0;" parent="1" source="q5NMnrcOPKUYkLZQrbMx-27" target="q5NMnrcOPKUYkLZQrbMx-135" edge="1">
          <mxGeometry relative="1" as="geometry" />
        </mxCell>
        <mxCell id="q5NMnrcOPKUYkLZQrbMx-145" style="edgeStyle=orthogonalEdgeStyle;rounded=0;orthogonalLoop=1;jettySize=auto;html=1;entryX=1;entryY=0.5;entryDx=0;entryDy=0;endArrow=block;endFill=0;" parent="1" source="q5NMnrcOPKUYkLZQrbMx-27" target="q5NMnrcOPKUYkLZQrbMx-113" edge="1">
          <mxGeometry relative="1" as="geometry">
            <Array as="points">
              <mxPoint x="260" y="355" />
              <mxPoint x="260" y="121" />
            </Array>
          </mxGeometry>
        </mxCell>
        <mxCell id="q5NMnrcOPKUYkLZQrbMx-27" value="gestion&amp;nbsp; user" style="ellipse;whiteSpace=wrap;html=1;" parent="1" vertex="1">
          <mxGeometry x="100" y="330" width="90" height="40" as="geometry" />
        </mxCell>
        <mxCell id="q5NMnrcOPKUYkLZQrbMx-144" style="edgeStyle=orthogonalEdgeStyle;rounded=0;orthogonalLoop=1;jettySize=auto;html=1;entryX=1;entryY=1;entryDx=0;entryDy=0;endArrow=block;endFill=0;" parent="1" source="q5NMnrcOPKUYkLZQrbMx-28" target="q5NMnrcOPKUYkLZQrbMx-113" edge="1">
          <mxGeometry relative="1" as="geometry">
            <Array as="points">
              <mxPoint x="230" y="248" />
            </Array>
          </mxGeometry>
        </mxCell>
        <mxCell id="q5NMnrcOPKUYkLZQrbMx-28" value="gestion website" style="ellipse;whiteSpace=wrap;html=1;" parent="1" vertex="1">
          <mxGeometry x="105" y="230" width="85" height="36" as="geometry" />
        </mxCell>
        <mxCell id="q5NMnrcOPKUYkLZQrbMx-53" value="gestion profile" style="ellipse;whiteSpace=wrap;html=1;" parent="1" vertex="1">
          <mxGeometry x="440" y="240" width="100" height="40" as="geometry" />
        </mxCell>
        <mxCell id="q5NMnrcOPKUYkLZQrbMx-54" style="edgeStyle=orthogonalEdgeStyle;rounded=0;orthogonalLoop=1;jettySize=auto;html=1;exitX=0.5;exitY=1;exitDx=0;exitDy=0;" parent="1" edge="1">
          <mxGeometry relative="1" as="geometry">
            <mxPoint x="380" y="210" as="sourcePoint" />
            <mxPoint x="380" y="210" as="targetPoint" />
          </mxGeometry>
        </mxCell>
        <mxCell id="q5NMnrcOPKUYkLZQrbMx-58" value="gestion website" style="ellipse;whiteSpace=wrap;html=1;" parent="1" vertex="1">
          <mxGeometry x="395" y="320" width="85" height="40" as="geometry" />
        </mxCell>
        <mxCell id="q5NMnrcOPKUYkLZQrbMx-68" value="authorisation" style="ellipse;whiteSpace=wrap;html=1;" parent="1" vertex="1">
          <mxGeometry x="320" y="236" width="85" height="40" as="geometry" />
        </mxCell>
        <mxCell id="q5NMnrcOPKUYkLZQrbMx-76" value="authentiffication" style="ellipse;whiteSpace=wrap;html=1;" parent="1" vertex="1">
          <mxGeometry x="260" y="460" width="110" height="33" as="geometry" />
        </mxCell>
        <mxCell id="q5NMnrcOPKUYkLZQrbMx-104" value="utilisateur" style="shape=umlActor;verticalLabelPosition=bottom;verticalAlign=top;html=1;" parent="1" vertex="1">
          <mxGeometry x="105" width="30" height="60" as="geometry" />
        </mxCell>
        <mxCell id="q5NMnrcOPKUYkLZQrbMx-109" value="" style="line;strokeWidth=1;fillColor=none;align=left;verticalAlign=middle;spacingTop=-1;spacingLeft=3;spacingRight=3;rotatable=0;labelPosition=right;points=[];portConstraint=eastwest;strokeColor=inherit;" parent="1" vertex="1">
          <mxGeometry x="120" y="31" width="170" height="8" as="geometry" />
        </mxCell>
        <mxCell id="q5NMnrcOPKUYkLZQrbMx-153" style="edgeStyle=orthogonalEdgeStyle;rounded=0;orthogonalLoop=1;jettySize=auto;html=1;entryX=0.5;entryY=0;entryDx=0;entryDy=0;endArrow=openThin;endFill=0;dashed=1;" parent="1" source="q5NMnrcOPKUYkLZQrbMx-112" target="q5NMnrcOPKUYkLZQrbMx-76" edge="1">
          <mxGeometry relative="1" as="geometry">
            <Array as="points">
              <mxPoint x="315" y="110" />
            </Array>
          </mxGeometry>
        </mxCell>
        <mxCell id="q5NMnrcOPKUYkLZQrbMx-112" value="role admin" style="ellipse;whiteSpace=wrap;html=1;" parent="1" vertex="1">
          <mxGeometry x="360" y="100" width="80" height="36" as="geometry" />
        </mxCell>
        <mxCell id="q5NMnrcOPKUYkLZQrbMx-152" style="edgeStyle=orthogonalEdgeStyle;rounded=0;orthogonalLoop=1;jettySize=auto;html=1;entryX=0;entryY=0;entryDx=0;entryDy=0;endArrow=openThin;endFill=0;dashed=1;" parent="1" source="q5NMnrcOPKUYkLZQrbMx-113" target="q5NMnrcOPKUYkLZQrbMx-76" edge="1">
          <mxGeometry relative="1" as="geometry">
            <Array as="points">
              <mxPoint x="276" y="110" />
            </Array>
          </mxGeometry>
        </mxCell>
        <mxCell id="q5NMnrcOPKUYkLZQrbMx-154" value="i" style="edgeLabel;html=1;align=center;verticalAlign=middle;resizable=0;points=[];" parent="q5NMnrcOPKUYkLZQrbMx-152" vertex="1" connectable="0">
          <mxGeometry x="-0.3433" y="1" relative="1" as="geometry">
            <mxPoint as="offset" />
          </mxGeometry>
        </mxCell>
        <mxCell id="vavoq21fvCiBZxtYDb1c-13" style="edgeStyle=orthogonalEdgeStyle;rounded=0;orthogonalLoop=1;jettySize=auto;html=1;entryX=0;entryY=1;entryDx=0;entryDy=0;" parent="1" source="q5NMnrcOPKUYkLZQrbMx-113" target="q5NMnrcOPKUYkLZQrbMx-116" edge="1">
          <mxGeometry relative="1" as="geometry">
            <Array as="points">
              <mxPoint x="205" y="90" />
              <mxPoint x="307" y="90" />
            </Array>
          </mxGeometry>
        </mxCell>
        <mxCell id="q5NMnrcOPKUYkLZQrbMx-113" value="role super" style="ellipse;whiteSpace=wrap;html=1;" parent="1" vertex="1">
          <mxGeometry x="170" y="106" width="70" height="30" as="geometry" />
        </mxCell>
        <mxCell id="q5NMnrcOPKUYkLZQrbMx-116" value="role" style="ellipse;whiteSpace=wrap;html=1;" parent="1" vertex="1">
          <mxGeometry x="290" y="20" width="120" height="30" as="geometry" />
        </mxCell>
        <mxCell id="q5NMnrcOPKUYkLZQrbMx-129" value="&amp;lt;&amp;lt;include&amp;gt;&amp;gt;" style="html=1;verticalAlign=bottom;endArrow=open;dashed=1;endSize=8;curved=0;rounded=0;exitX=1;exitY=1;exitDx=0;exitDy=0;entryX=0.382;entryY=-0.016;entryDx=0;entryDy=0;entryPerimeter=0;" parent="1" source="q5NMnrcOPKUYkLZQrbMx-112" target="q5NMnrcOPKUYkLZQrbMx-53" edge="1">
          <mxGeometry relative="1" as="geometry">
            <mxPoint x="354" y="136" as="sourcePoint" />
            <mxPoint x="300" y="185" as="targetPoint" />
          </mxGeometry>
        </mxCell>
        <mxCell id="q5NMnrcOPKUYkLZQrbMx-130" value="&amp;lt;&amp;lt;include&amp;gt;&amp;gt;" style="html=1;verticalAlign=bottom;endArrow=open;dashed=1;endSize=8;curved=0;rounded=0;exitX=1;exitY=1;exitDx=0;exitDy=0;entryX=0.5;entryY=0;entryDx=0;entryDy=0;" parent="1" target="q5NMnrcOPKUYkLZQrbMx-58" edge="1">
          <mxGeometry relative="1" as="geometry">
            <mxPoint x="396" y="136" as="sourcePoint" />
            <mxPoint x="350" y="222" as="targetPoint" />
          </mxGeometry>
        </mxCell>
        <mxCell id="q5NMnrcOPKUYkLZQrbMx-131" value="&amp;lt;&amp;lt;include&amp;gt;&amp;gt;" style="html=1;verticalAlign=bottom;endArrow=open;dashed=1;endSize=8;curved=0;rounded=0;exitX=0;exitY=1;exitDx=0;exitDy=0;entryX=0.5;entryY=0;entryDx=0;entryDy=0;" parent="1" source="q5NMnrcOPKUYkLZQrbMx-112" target="q5NMnrcOPKUYkLZQrbMx-68" edge="1">
          <mxGeometry relative="1" as="geometry">
            <mxPoint x="306" y="140" as="sourcePoint" />
            <mxPoint x="260" y="226" as="targetPoint" />
          </mxGeometry>
        </mxCell>
        <mxCell id="q5NMnrcOPKUYkLZQrbMx-135" value="gestion" style="ellipse;whiteSpace=wrap;html=1;" parent="1" vertex="1">
          <mxGeometry x="15" y="290" width="70" height="30" as="geometry" />
        </mxCell>
        <mxCell id="q5NMnrcOPKUYkLZQrbMx-141" style="edgeStyle=orthogonalEdgeStyle;rounded=0;orthogonalLoop=1;jettySize=auto;html=1;entryX=0.729;entryY=0.033;entryDx=0;entryDy=0;entryPerimeter=0;endArrow=block;endFill=0;" parent="1" source="q5NMnrcOPKUYkLZQrbMx-28" target="q5NMnrcOPKUYkLZQrbMx-135" edge="1">
          <mxGeometry relative="1" as="geometry" />
        </mxCell>
        <mxCell id="q5NMnrcOPKUYkLZQrbMx-155" value="&amp;lt;&amp;lt;include&amp;gt;&amp;gt;" style="text;html=1;align=center;verticalAlign=middle;resizable=0;points=[];autosize=1;strokeColor=none;fillColor=none;rotation=90;" parent="1" vertex="1">
          <mxGeometry x="240" y="370" width="90" height="30" as="geometry" />
        </mxCell>
        <mxCell id="q5NMnrcOPKUYkLZQrbMx-156" value="&amp;lt;&amp;lt;include&amp;gt;&amp;gt;" style="text;html=1;align=center;verticalAlign=middle;resizable=0;points=[];autosize=1;strokeColor=none;fillColor=none;rotation=90;" parent="1" vertex="1">
          <mxGeometry x="270" y="220" width="90" height="30" as="geometry" />
        </mxCell>
        <mxCell id="q5NMnrcOPKUYkLZQrbMx-169" style="edgeStyle=orthogonalEdgeStyle;rounded=0;orthogonalLoop=1;jettySize=auto;html=1;entryX=1;entryY=0;entryDx=0;entryDy=0;endArrow=openThin;endFill=0;dashed=1;" parent="1" edge="1">
          <mxGeometry relative="1" as="geometry">
            <mxPoint x="584.52" y="99" as="sourcePoint" />
            <mxPoint x="354.004521639808" y="467.01359370478303" as="targetPoint" />
            <Array as="points">
              <mxPoint x="609.52" y="99" />
              <mxPoint x="609.52" y="392" />
              <mxPoint x="354.52" y="392" />
            </Array>
          </mxGeometry>
        </mxCell>
        <mxCell id="vavoq21fvCiBZxtYDb1c-15" style="edgeStyle=orthogonalEdgeStyle;rounded=0;orthogonalLoop=1;jettySize=auto;html=1;exitX=0;exitY=0.5;exitDx=0;exitDy=0;entryX=1;entryY=0.5;entryDx=0;entryDy=0;" parent="1" source="q5NMnrcOPKUYkLZQrbMx-162" target="q5NMnrcOPKUYkLZQrbMx-116" edge="1">
          <mxGeometry relative="1" as="geometry" />
        </mxCell>
        <mxCell id="q5NMnrcOPKUYkLZQrbMx-162" value="role user" style="ellipse;whiteSpace=wrap;html=1;" parent="1" vertex="1">
          <mxGeometry x="500" y="77" width="85" height="40" as="geometry" />
        </mxCell>
        <mxCell id="q5NMnrcOPKUYkLZQrbMx-170" value="&amp;lt;&amp;lt;include&amp;gt;&amp;gt;" style="text;html=1;align=center;verticalAlign=middle;resizable=0;points=[];autosize=1;strokeColor=none;fillColor=none;rotation=90;" parent="1" vertex="1">
          <mxGeometry x="560" y="342" width="90" height="30" as="geometry" />
        </mxCell>
        <mxCell id="vavoq21fvCiBZxtYDb1c-10" value="&amp;lt;&amp;lt;include&amp;gt;&amp;gt;" style="html=1;verticalAlign=bottom;endArrow=open;dashed=1;endSize=8;curved=0;rounded=0;exitX=0.396;exitY=0.991;exitDx=0;exitDy=0;entryX=0.609;entryY=-0.039;entryDx=0;entryDy=0;entryPerimeter=0;exitPerimeter=0;" parent="1" source="q5NMnrcOPKUYkLZQrbMx-162" target="q5NMnrcOPKUYkLZQrbMx-53" edge="1">
          <mxGeometry relative="1" as="geometry">
            <mxPoint x="439" y="140" as="sourcePoint" />
            <mxPoint x="482" y="247" as="targetPoint" />
          </mxGeometry>
        </mxCell>
        <mxCell id="vavoq21fvCiBZxtYDb1c-14" style="edgeStyle=orthogonalEdgeStyle;rounded=0;orthogonalLoop=1;jettySize=auto;html=1;entryX=0.568;entryY=1.1;entryDx=0;entryDy=0;entryPerimeter=0;" parent="1" source="q5NMnrcOPKUYkLZQrbMx-112" target="q5NMnrcOPKUYkLZQrbMx-116" edge="1">
          <mxGeometry relative="1" as="geometry" />
        </mxCell>
        <mxCell id="vavoq21fvCiBZxtYDb1c-16" value="authorisation" style="ellipse;whiteSpace=wrap;html=1;" parent="1" vertex="1">
          <mxGeometry x="500" width="85" height="40" as="geometry" />
        </mxCell>
        <mxCell id="vavoq21fvCiBZxtYDb1c-17" value="&amp;lt;&amp;lt;include&amp;gt;&amp;gt;" style="html=1;verticalAlign=bottom;endArrow=open;dashed=1;endSize=8;curved=0;rounded=0;exitX=0.5;exitY=0;exitDx=0;exitDy=0;entryX=0.5;entryY=1;entryDx=0;entryDy=0;" parent="1" source="q5NMnrcOPKUYkLZQrbMx-162" target="vavoq21fvCiBZxtYDb1c-16" edge="1">
          <mxGeometry relative="1" as="geometry">
            <mxPoint x="573" y="77" as="sourcePoint" />
            <mxPoint x="540" y="198" as="targetPoint" />
          </mxGeometry>
        </mxCell>
      </root>
    </mxGraphModel>
  </diagram>
</mxfile>
